<svg width="72" height="72" viewBox="0 0 72 72" fill="none" xmlns="http://www.w3.org/2000/svg">
<rect width="72" height="72" rx="36" fill="#007ACC"/>
<rect x="19" y="19" width="34" height="34" rx="3.4" fill="white"/>
<path d="M30.9076 38.8054L30.9 39.7878H32.4612H34.0225V44.2241V48.6603H35.1268H36.2311V44.2241V39.7878H37.7924H39.3536V38.8244C39.3536 38.2913 39.3422 37.8458 39.327 37.8343C39.3155 37.8191 37.4154 37.8115 35.1116 37.8153L30.919 37.8267L30.9076 38.8054Z" fill="#007ACC"/>
<path d="M44.9601 37.7988C45.5694 37.9511 46.0339 38.2215 46.4604 38.6632C46.6813 38.8993 47.0088 39.3296 47.0354 39.4324C47.043 39.4629 45.9997 40.1635 45.3676 40.5558C45.3447 40.571 45.2533 40.472 45.1505 40.3197C44.8421 39.8703 44.5184 39.6761 44.0233 39.6419C43.296 39.5924 42.8277 39.9731 42.8315 40.6091C42.8315 40.7957 42.8581 40.9061 42.9343 41.0584C43.0942 41.3897 43.3912 41.5877 44.3242 41.9914C46.0416 42.7301 46.7765 43.2175 47.2334 43.9106C47.7437 44.6836 47.8579 45.9173 47.5114 46.8351C47.1306 47.8327 46.1863 48.5105 44.8573 48.7352C44.446 48.8076 43.4712 48.7961 43.0295 48.7162C42.0661 48.5448 41.1522 48.0688 40.5886 47.4443C40.3677 47.2006 39.9374 46.5647 39.9641 46.519C39.9755 46.5038 40.0745 46.4428 40.1849 46.3781C40.2916 46.3172 40.6952 46.0849 41.076 45.864L41.7652 45.4642L41.9099 45.6774C42.1118 45.9859 42.5535 46.4086 42.82 46.5495C43.5854 46.9531 44.6364 46.896 45.1543 46.4314C45.3752 46.2296 45.4666 46.0202 45.4666 45.7117C45.4666 45.4337 45.4323 45.3119 45.2876 45.1024C45.101 44.8359 44.7202 44.6112 43.6387 44.1428C42.4012 43.6097 41.8681 43.2784 41.3806 42.7529C41.0988 42.4483 40.8323 41.9609 40.7219 41.5534C40.6305 41.2145 40.6076 40.3654 40.68 40.0226C40.9351 38.827 41.8376 37.993 43.1399 37.7455C43.5626 37.6655 44.545 37.696 44.9601 37.7988Z" fill="#007ACC"/>
</svg>
